<svg width="556" height="556" viewBox="0 0 556 556" fill="none" xmlns="http://www.w3.org/2000/svg">
<path fill-rule="evenodd" clip-rule="evenodd" d="M538.56 344.64C520.08 353.601 512.24 312.16 482.001 304.32C477.52 339.039 464.079 372.082 443.36 400.64C469.122 416.32 502.161 392.242 508.321 415.761C515.04 441.523 438.88 517.681 414.801 509.281C395.199 502.562 419.281 467.84 403.602 441.519C375.043 463.917 340.883 477.917 304.481 482.398C312.321 512.078 353.2 519.918 344.243 538.398C333.602 561.359 225.523 561.359 212.083 538.398C199.763 517.117 240.083 510.957 247.364 481.839C212.645 476.8 179.602 462.8 152.165 440.96C136.485 467.28 160.005 501.999 140.966 508.722C117.443 517.679 41.282 441.519 48.001 415.761C54.1612 392.241 87.2 416.32 112.962 400.64C92.243 372.64 78.802 339.601 74.321 304.32C44.079 312.16 36.801 353.601 17.762 344.64C-5.199 333.999 -5.199 225.92 17.762 212.48C39.043 200.16 45.203 241.039 74.883 247.761C79.9221 213.042 93.922 180.562 115.762 152.562C88.883 135.761 54.16 160.402 46.883 140.8C38.4807 117.28 114.641 41.12 140.399 47.839C164.481 53.9992 139.282 87.601 156.079 113.921C182.958 93.761 214.88 80.882 248.477 75.843C241.758 45.605 200.317 39.445 212.637 18.163C226.078 -4.79799 334.157 -4.79799 344.797 18.163C353.758 37.202 311.758 44.483 304.477 75.284C339.196 79.7645 372.239 93.206 400.239 113.925C417.04 87.601 392.399 53.999 415.923 47.839C441.681 41.1202 517.843 117.28 509.443 141.359C502.162 160.961 467.443 136.879 441.123 153.121C462.404 180.562 476.963 213.601 482.002 248.32C511.682 241.039 517.842 200.718 539.123 213.039C561.521 225.922 561.521 333.999 538.56 344.639L538.56 344.64Z" fill="#5B029C"/>
</svg>
