<svg width="948" height="132" viewBox="0 0 948 132" fill="none" xmlns="http://www.w3.org/2000/svg">
<path d="M90.576 63.944C90.576 72.776 89.16 80.528 86.328 87.2C83.496 93.872 78.792 99.08 72.216 102.824C65.688 106.568 56.832 108.44 45.648 108.44C34.464 108.44 25.584 106.568 19.008 102.824C12.48 99.08 7.79997 93.872 4.96797 87.2C2.13597 80.528 0.719971 72.776 0.719971 63.944V2.88799H29.088V65.096C29.088 72.296 30.744 77.408 34.056 80.432C37.416 83.456 41.28 84.968 45.648 84.968C48.528 84.968 51.216 84.32 53.712 83.024C56.256 81.68 58.296 79.568 59.832 76.688C61.416 73.76 62.208 69.896 62.208 65.096V2.88799H90.576V63.944Z" fill="white"/>
<path d="M149.129 108.44C143.753 108.44 138.425 107.768 133.145 106.424C127.913 105.08 123.089 103.04 118.673 100.304C114.305 97.568 110.705 94.136 107.873 90.008C105.041 85.832 103.409 80.936 102.977 75.32H131.489C132.017 77.768 133.049 79.856 134.585 81.584C136.121 83.312 138.113 84.656 140.561 85.616C143.009 86.528 145.817 86.984 148.985 86.984C151.865 86.984 154.577 86.696 157.121 86.12C159.713 85.544 161.801 84.584 163.385 83.24C165.017 81.848 165.833 79.928 165.833 77.48C165.833 75.368 164.993 73.736 163.313 72.584C161.681 71.432 159.545 70.544 156.905 69.92C154.313 69.296 151.577 68.744 148.697 68.264L132.785 65.528C124.817 64.232 118.385 61.016 113.489 55.88C108.641 50.696 106.121 43.688 105.929 34.856C105.833 27.848 107.705 21.872 111.545 16.928C115.433 11.936 120.617 8.144 127.097 5.552C133.625 2.91199 140.825 1.59199 148.697 1.59199C158.201 1.59199 166.241 2.98399 172.817 5.768C179.393 8.552 184.385 12.416 187.793 17.36C191.249 22.304 193.049 27.992 193.193 34.424H165.401C165.113 31.736 164.297 29.576 162.953 27.944C161.609 26.264 159.785 25.064 157.481 24.344C155.225 23.576 152.489 23.192 149.273 23.192C146.585 23.192 144.329 23.456 142.505 23.984C140.729 24.464 139.313 25.112 138.257 25.928C137.201 26.696 136.433 27.56 135.953 28.52C135.521 29.48 135.305 30.44 135.305 31.4C135.305 33.752 136.049 35.648 137.537 37.088C139.025 38.528 142.001 39.656 146.465 40.472L162.449 43.208C169.889 44.504 175.721 46.52 179.945 49.256C184.169 51.944 187.265 54.992 189.233 58.4C191.249 61.808 192.521 65.192 193.049 68.552C193.577 71.912 193.841 74.888 193.841 77.48C193.841 83.384 191.873 88.688 187.937 93.392C184.049 98.048 178.745 101.72 172.025 104.408C165.305 107.096 157.673 108.44 149.129 108.44Z" fill="white"/>
<path d="M198.686 107L235.55 2.88799H264.206L301.07 107H273.422L266.51 86.84H233.678L226.622 107H198.686ZM239.582 62.936H260.174L249.95 29.672L239.582 62.936Z" fill="white"/>
<path d="M308.301 107V78.776H337.821V107H308.301Z" fill="white"/>
<path d="M392.267 131.624C377.579 131.624 366.635 129.944 359.435 126.584C352.235 123.272 348.635 119.24 348.635 114.488C348.635 112.088 349.331 110.096 350.723 108.512C352.115 106.976 353.747 105.776 355.619 104.912C357.491 104.048 359.195 103.424 360.731 103.04C362.267 102.656 363.179 102.44 363.467 102.392C362.747 102.008 361.547 101.36 359.867 100.448C358.187 99.536 356.603 98.24 355.115 96.56C353.675 94.832 352.955 92.6 352.955 89.864C352.955 86.888 354.347 84.152 357.131 81.656C359.963 79.16 364.283 77.528 370.091 76.76C364.715 74.36 360.707 71.048 358.067 66.824C355.427 62.6 354.107 58.52 354.107 54.584C354.107 49.592 355.859 45.368 359.363 41.912C362.867 38.456 367.475 35.84 373.187 34.064C378.947 32.288 385.211 31.4 391.979 31.4C397.307 31.4 401.603 31.928 404.867 32.984C408.131 34.04 411.131 35.288 413.867 36.728C415.259 36.2 416.915 35.576 418.835 34.856C420.803 34.088 422.891 33.272 425.099 32.408C427.355 31.544 429.611 30.656 431.867 29.744C434.123 28.832 436.283 27.944 438.347 27.08L438.203 46.952L425.531 48.68C425.819 49.736 426.035 50.864 426.179 52.064C426.323 53.216 426.395 54.008 426.395 54.44C426.395 58.664 425.027 62.744 422.291 66.68C419.555 70.568 415.499 73.784 410.123 76.328C404.747 78.824 398.123 80.072 390.251 80.072C389.099 80.072 387.467 80.048 385.355 80C383.243 79.904 381.563 79.784 380.315 79.64C379.595 79.784 379.067 79.952 378.731 80.144C378.443 80.288 378.299 80.552 378.299 80.936C378.299 81.944 379.379 82.544 381.539 82.736C383.699 82.928 386.603 83.144 390.251 83.384C391.547 83.432 393.539 83.528 396.227 83.672C398.963 83.816 401.915 84.008 405.083 84.248C415.403 84.968 422.915 87.44 427.619 91.664C432.371 95.84 434.747 100.808 434.747 106.568C434.747 113.768 431.195 119.744 424.091 124.496C416.987 129.248 406.379 131.624 392.267 131.624ZM396.587 116.936C401.483 116.936 404.651 116.504 406.091 115.64C407.531 114.776 408.251 113.672 408.251 112.328C408.251 110.744 407.435 109.448 405.803 108.44C404.171 107.48 401.915 106.904 399.035 106.712L385.499 105.848C382.907 105.704 380.915 105.92 379.523 106.496C378.131 107.024 377.171 107.72 376.643 108.584C376.115 109.496 375.851 110.36 375.851 111.176C375.851 113.528 377.531 115.064 380.891 115.784C384.251 116.552 389.483 116.936 396.587 116.936ZM391.115 65.384C393.803 65.384 395.963 64.448 397.595 62.576C399.227 60.704 400.043 58.376 400.043 55.592C400.043 52.76 399.227 50.312 397.595 48.248C395.963 46.136 393.803 45.08 391.115 45.08C388.475 45.08 386.315 46.136 384.635 48.248C383.003 50.312 382.187 52.76 382.187 55.592C382.187 58.376 383.003 60.704 384.635 62.576C386.315 64.448 388.475 65.384 391.115 65.384Z" fill="white"/>
<path d="M477.519 108.44C469.839 108.44 463.167 106.808 457.503 103.544C451.887 100.28 447.519 95.792 444.399 90.08C441.327 84.32 439.791 77.72 439.791 70.28C439.791 62.456 441.399 55.616 444.615 49.76C447.879 43.856 452.343 39.272 458.007 36.008C463.719 32.744 470.271 31.112 477.663 31.112C485.439 31.112 492.135 32.816 497.751 36.224C503.415 39.584 507.759 44.216 510.783 50.12C513.855 56.024 515.391 62.744 515.391 70.28C515.391 77.672 513.831 84.248 510.711 90.008C507.639 95.72 503.271 100.232 497.607 103.544C491.943 106.808 485.247 108.44 477.519 108.44ZM477.663 88.136C480.639 88.136 482.871 87.128 484.359 85.112C485.895 83.048 486.903 80.552 487.383 77.624C487.911 74.696 488.175 71.912 488.175 69.272C488.175 66.584 487.911 63.848 487.383 61.064C486.903 58.232 485.895 55.88 484.359 54.008C482.871 52.088 480.639 51.128 477.663 51.128C474.639 51.128 472.359 52.088 470.823 54.008C469.335 55.88 468.327 58.232 467.799 61.064C467.271 63.848 467.007 66.584 467.007 69.272C467.007 71.912 467.271 74.696 467.799 77.624C468.327 80.552 469.335 83.048 470.823 85.112C472.359 87.128 474.639 88.136 477.663 88.136Z" fill="white"/>
<path d="M590.599 32.552L561.583 107H543.583L514.639 32.552H539.551L552.655 70.568L565.183 32.552H590.599Z" fill="white"/>
<path d="M649.07 32.552V51.56H635.534V107H607.454V51.56H595.502V32.552H607.454V22.616C607.454 16.472 609.47 11.648 613.502 8.144C617.534 4.63999 622.958 2.88799 629.774 2.88799H649.646L649.79 21.032H641.15C638.846 21.032 637.238 21.56 636.326 22.616C635.414 23.624 634.958 25.496 634.958 28.232V32.552H649.07Z" fill="white"/>
<path d="M656.336 107V32.552H683.408V53.144C684.56 49.16 686.192 45.512 688.304 42.2C690.464 38.84 693.2 36.152 696.512 34.136C699.824 32.12 703.784 31.112 708.392 31.112C708.728 31.112 708.992 31.112 709.184 31.112C709.376 31.112 709.472 31.112 709.472 31.112V57.608C709.328 57.56 709.184 57.536 709.04 57.536C708.944 57.536 708.776 57.512 708.536 57.464C703.304 56.936 699.08 56.984 695.864 57.608C692.696 58.232 690.272 59.264 688.592 60.704C686.912 62.096 685.784 63.728 685.208 65.6C684.632 67.424 684.344 69.32 684.344 71.288V107H656.336Z" fill="white"/>
<path d="M741.035 76.184C740.987 79.16 741.443 81.584 742.403 83.456C743.363 85.328 744.659 86.696 746.291 87.56C747.971 88.424 749.819 88.856 751.835 88.856C754.379 88.856 756.659 88.376 758.675 87.416C760.739 86.456 762.347 84.536 763.499 81.656H788.267C787.499 87.176 785.315 91.952 781.715 95.984C778.115 99.968 773.723 103.04 768.539 105.2C763.403 107.36 758.075 108.44 752.555 108.44C744.827 108.44 738.011 106.88 732.107 103.76C726.251 100.592 721.691 96.176 718.427 90.512C715.163 84.848 713.531 78.248 713.531 70.712C713.531 63.608 715.019 57.056 717.995 51.056C721.019 45.056 725.339 40.232 730.955 36.584C736.619 32.936 743.435 31.112 751.403 31.112C759.515 31.112 766.283 32.792 771.707 36.152C777.131 39.512 781.187 44.12 783.875 49.976C786.611 55.784 787.979 62.36 787.979 69.704V76.184H741.035ZM740.891 60.488H762.131C762.131 58.616 761.723 56.888 760.907 55.304C760.091 53.672 758.891 52.376 757.307 51.416C755.723 50.456 753.755 49.976 751.403 49.976C749.483 49.976 747.731 50.456 746.147 51.416C744.563 52.376 743.291 53.672 742.331 55.304C741.371 56.888 740.891 58.616 740.891 60.488Z" fill="white"/>
<path d="M830.131 108.44C824.947 108.44 819.811 107.552 814.723 105.776C809.635 104 805.243 101.168 801.547 97.28C797.851 93.392 795.475 88.28 794.419 81.944H818.179C818.803 84.344 819.907 86.12 821.491 87.272C823.075 88.424 824.683 89.168 826.315 89.504C827.947 89.84 829.171 90.008 829.987 90.008C833.107 90.008 835.627 89.648 837.547 88.928C839.467 88.16 840.427 87.032 840.427 85.544C840.427 84.152 839.779 83.072 838.483 82.304C837.187 81.488 834.859 80.84 831.499 80.36L820.483 78.632C813.379 77.336 807.643 74.888 803.275 71.288C798.907 67.688 796.675 62.552 796.579 55.88C796.531 51.272 797.803 47.096 800.395 43.352C803.035 39.608 806.875 36.632 811.915 34.424C817.003 32.216 823.171 31.112 830.419 31.112C840.595 31.112 848.659 33.32 854.611 37.736C860.563 42.152 863.539 48.152 863.539 55.736H840.715C840.187 53.48 838.915 51.824 836.899 50.768C834.883 49.664 832.603 49.112 830.059 49.112C827.467 49.112 825.259 49.496 823.435 50.264C821.659 51.032 820.771 52.136 820.771 53.576C820.771 54.872 821.635 55.928 823.363 56.744C825.091 57.512 827.947 58.232 831.931 58.904L841.507 60.632C846.307 61.784 850.171 63.344 853.099 65.312C856.075 67.28 858.331 69.416 859.867 71.72C861.451 73.976 862.531 76.208 863.107 78.416C863.683 80.576 863.971 82.424 863.971 83.96C863.971 89.288 862.459 93.776 859.435 97.424C856.459 101.024 852.403 103.76 847.267 105.632C842.179 107.504 836.467 108.44 830.131 108.44Z" fill="white"/>
<path d="M873.641 107V0.00799561H901.649V43.136C902.801 41.696 904.145 40.16 905.681 38.528C907.265 36.896 909.281 35.504 911.729 34.352C914.225 33.152 917.417 32.552 921.305 32.552C925.961 32.552 930.257 33.512 934.193 35.432C938.129 37.304 941.297 40.088 943.697 43.784C946.097 47.48 947.297 52.04 947.297 57.464V107H919.217V61.064C919.217 58.616 918.281 56.792 916.409 55.592C914.537 54.344 912.545 53.72 910.433 53.72C909.089 53.72 907.721 54.032 906.329 54.656C904.985 55.232 903.857 56.096 902.945 57.248C902.081 58.4 901.649 59.792 901.649 61.424V107H873.641Z" fill="white"/>
</svg>
